<svg width="686" height="170" viewBox="0 0 686 170" fill="none" xmlns="http://www.w3.org/2000/svg">
<path d="M131.397 166.062L120.885 142.535H61.0138L50.5021 166.062H0L75.1818 3.42633H106.717L182.127 166.062H131.397ZM81.1232 89.5411L74.2677 106.901H107.86L101.004 89.5411L91.1779 58.9326L81.1232 89.5411ZM307.783 76.9779C317.228 79.1099 324.997 83.7544 331.092 90.9116C337.337 97.9165 340.461 106.673 340.461 117.18C340.461 149.768 318.524 166.062 274.649 166.062H194.439V3.42633H273.049C290.72 3.42633 304.279 6.70042 313.725 13.2484C323.169 19.7965 327.893 29.2379 327.893 41.5726C327.893 59.5417 321.189 71.3436 307.783 76.9779ZM240.6 40.2021V68.2979H269.393C279.294 68.2979 284.246 63.7295 284.246 54.5926C284.246 44.999 279.294 40.2021 269.393 40.2021H240.6ZM274.877 128.601C280.208 128.601 284.475 127.383 287.674 124.946C290.873 122.51 292.473 119.236 292.473 115.124C292.473 110.86 290.873 107.51 287.674 105.074C284.475 102.637 280.208 101.419 274.877 101.419H240.6V128.601H274.877ZM439.42 169.717C412.607 169.717 391.28 162.102 375.436 146.875C359.591 131.494 351.67 110.708 351.67 84.5158C351.67 58.3236 359.591 37.6895 375.436 22.6137C391.28 7.53791 412.607 0 439.42 0C454.502 0 468.365 2.81726 481.01 8.45159C493.655 13.9337 504.014 21.5478 512.088 31.2937L475.983 60.76C472.478 55.2779 467.679 50.8617 461.586 47.5116C455.493 44.1615 448.713 42.4863 441.248 42.4863C428.603 42.4863 418.625 46.2173 411.313 53.679C404 61.1407 400.344 71.4196 400.344 84.5158C400.344 97.9165 404 108.424 411.313 116.038C418.625 123.5 428.603 127.231 441.248 127.231C448.866 127.231 455.722 125.632 461.815 122.434C467.908 119.084 472.632 114.667 475.983 109.185L512.088 138.652C494.873 159.361 470.65 169.717 439.42 169.717Z" fill="#5C2A9D"/>
<path d="M535.363 81.5285C539.022 81.5285 542.42 79.9693 545.556 76.8511C547.125 75.292 548.17 74.5124 548.693 74.5124C549.303 74.5124 549.608 74.9455 549.608 75.8117C549.608 76.6779 549.042 77.7173 547.909 78.9299C543.292 84.0403 537.497 86.5956 530.528 86.5956C529.134 93.0053 526.957 98.3757 523.994 102.707C521.031 106.951 517.286 109.073 512.755 109.073C508.225 109.073 504.958 106.431 502.954 101.147C499.383 106.431 495.679 109.073 491.847 109.073C484.616 109.073 481 102.144 481 88.2847C481 78.6701 481.958 72.1305 483.875 68.6657C484.224 68.0593 485.531 67.0633 487.795 65.6774C490.06 64.2914 491.628 63.5985 492.5 63.5985C493.807 63.5985 494.46 64.3781 494.46 65.9372C494.286 70.0082 493.066 74.8155 490.801 80.3591C490.278 81.3985 490.017 83.9104 490.017 87.8949C490.017 91.7927 490.452 95.2575 491.324 98.289C492.282 101.234 493.633 102.707 495.375 102.707C497.117 102.707 499.252 100.628 501.778 96.4701C501.343 94.3046 501.125 92.0093 501.125 89.5839C501.125 87.0721 501.386 84.4301 501.909 81.6584C502.432 78.8 503.477 75.9416 505.045 73.0832C506.613 70.2248 508.486 68.7956 510.665 68.7956C511.361 68.7956 511.841 69.0122 512.102 69.4453C512.451 69.8783 512.625 70.9177 512.625 72.5635C512.625 76.981 511.449 82.4812 509.096 89.0642C509.445 92.8754 510.316 96.1236 511.71 98.8088C513.191 101.407 514.803 102.707 516.545 102.707C519.071 102.707 521.207 101.104 522.949 97.8993C524.691 94.6078 526.042 90.6234 527 85.946C523.776 85.0798 521.293 83.4341 519.551 81.0088C517.809 78.5834 516.937 75.8117 516.937 72.6934C516.937 69.4885 517.678 66.7601 519.159 64.508C520.727 62.1693 522.992 61 525.954 61C529.962 61 531.966 65.2876 531.966 73.8628C531.966 76.1148 531.835 78.4535 531.574 80.8788C532.88 81.3119 534.144 81.5285 535.363 81.5285ZM525.04 65.9372C524.255 65.9372 523.863 67.4097 523.863 70.3547C523.863 73.2998 525.213 76.0283 527.914 78.5401C528.002 78.1071 528.045 77.4575 528.045 76.5912C528.045 69.4885 527.043 65.9372 525.04 65.9372ZM578.467 109.073C575.069 109.073 572.5 108.38 570.757 106.994C570.148 106.388 569.842 104.872 569.842 102.447C569.842 99.9348 569.93 96.6 570.104 92.4423C567.839 98.0725 565.574 102.274 563.308 105.045C561.131 107.73 558.299 109.073 554.814 109.073C551.33 109.073 548.28 107.471 545.666 104.266C543.053 100.974 541.746 95.8637 541.746 88.9343C541.746 81.9182 543.706 75.725 547.626 70.3547C551.634 64.9845 556.862 62.2993 563.308 62.2993C566.097 62.2993 569.233 64.1182 572.717 67.7562C573.415 66.8035 574.634 65.6774 576.376 64.3781C578.206 62.9922 579.731 62.2993 580.95 62.2993C582.257 62.2993 582.91 63.9451 582.91 67.2365C582.91 68.1027 582.649 69.7918 582.126 72.3037C581.691 74.8155 581.168 76.6345 580.558 77.7606C579.774 79.7528 579.382 86.8122 579.382 98.9387C579.382 101.277 579.643 102.447 580.166 102.447C581.648 102.36 583.694 100.541 586.308 96.9898C588.922 93.3518 591.492 88.7177 594.018 83.0876C596.632 77.4575 598.2 74.6423 598.723 74.6423C599.333 74.6423 599.637 74.9888 599.637 75.6818C599.637 78.1071 598.375 81.9615 595.848 87.2453C588.966 101.797 583.172 109.073 578.467 109.073ZM562.524 67.4964C560.086 67.4964 557.472 69.3153 554.683 72.9533C551.983 76.5046 550.632 80.7056 550.632 85.5562C550.632 90.4068 551.33 94.3912 552.723 97.5095C554.205 100.628 556.121 102.187 558.473 102.187C561.348 102.187 565.574 95.0409 571.149 80.7489C571.237 80.056 571.324 78.8867 571.41 77.2409C571.585 75.5086 571.716 74.2093 571.802 73.3431C571.018 71.9571 569.625 70.6579 567.621 69.4453C565.705 68.146 564.006 67.4964 562.524 67.4964ZM591.773 97.1197L592.557 82.5679C592.557 73.2998 592.992 68.2326 593.864 67.3664C594.734 66.5002 596.259 65.2443 598.438 63.5985C600.702 61.8662 602.314 61 603.273 61C604.318 61 604.972 61.1732 605.233 61.5197C605.495 61.8662 605.625 62.5591 605.625 63.5985C605.625 67.3232 604.797 71.091 603.142 74.9022C601.835 82.871 601.182 89.4108 601.182 94.5212C601.182 99.6316 601.791 102.187 603.012 102.187C605.103 102.187 607.498 100.368 610.199 96.7299C612.986 93.0053 615.818 87.5484 618.693 80.3591C618.78 78.4535 618.867 76.4613 618.955 74.3825C619.041 72.217 619.128 70.6579 619.216 69.7051C619.302 68.6657 619.347 67.9294 619.347 67.4964C619.433 67.0633 620.654 65.894 623.006 63.9883C625.358 61.9961 627.143 61 628.364 61C629.671 61 630.324 62.6458 630.324 65.9372C630.324 66.8034 630.063 68.4925 629.54 71.0044C629.103 73.5163 628.581 75.3352 627.972 76.4613C627.274 82.6112 626.796 87.9816 626.534 92.5723C635.072 81.8316 639.602 76.1582 640.125 75.5518C640.734 74.9455 641.257 74.6423 641.693 74.6423C642.564 74.6423 643 75.0754 643 75.9416C643 76.4613 642.825 77.0243 642.477 77.6307C639.689 81.7017 634.2 88.8476 626.011 99.0686C625.489 109.376 625.14 116.392 624.966 120.117C624.53 131.117 622.961 138.826 620.262 143.244C617.648 147.748 612.943 150 606.148 150C603.185 150 600.398 149.091 597.784 147.272C595.257 145.54 593.995 142.464 593.995 138.047C593.995 133.716 595.649 129.255 598.96 124.664C602.358 120.074 608.5 113.014 617.387 103.486L618.171 89.3241C615.208 95.8204 612.29 100.758 609.415 104.136C606.54 107.427 603.359 109.073 599.875 109.073C596.39 109.073 594.168 108.207 593.211 106.474C592.251 104.742 591.773 101.624 591.773 97.1197ZM616.994 109.593C607.063 120.247 602.097 128.779 602.097 135.188C602.097 138.134 602.62 140.558 603.665 142.464C604.71 144.37 606.148 145.323 607.977 145.323C610.765 145.323 612.725 143.806 613.858 140.775C614.99 137.744 615.818 131.594 616.341 122.326L616.994 109.593Z" fill="#578BF0"/>
<path d="M621.096 100.994C620.641 99.3127 621.902 97.9813 622.797 96.7584C627.943 89.7204 632.909 82.5513 638.395 75.7578C649.604 61.8778 661.121 48.1977 672.502 34.4429C673.429 33.3299 674.316 32.1962 675.093 30.8661C669.616 34.2018 664.542 38.4886 659.076 41.7353C658.876 41.4409 658.68 41.1315 658.479 40.837C659.241 39.9313 659.881 38.8679 660.764 38.1555C667.776 32.4683 674.808 26.7989 681.901 21.2336C684.529 19.1736 686.122 19.722 685.993 22.6659C685.895 24.9212 685.467 27.2854 684.885 29.6222C683.644 34.6014 682.264 39.601 680.813 44.5855C679.845 47.9065 679.593 48.1668 676.675 50.9738C675.85 44.756 679.608 38.3634 680.275 31.9369C679.299 32.8418 678.46 33.4653 677.816 34.232C660.188 55.2793 640.482 79.684 624.963 97.4037C623.888 98.6912 623.082 100.419 621.102 101L621.096 100.994Z" fill="#578BF0"/>
</svg>
